{"asset":{"generator":"Modov11.2","version":"2.0"},"scene":0,"scenes":[{"nodes":[0,1]}],"nodes":[{"name":"Door_MESH","matrix":[1.0,0.0,0.0,0.0,0.0,1.0,0.0,0.0,0.0,0.0,1.0,0.0,-0.0011020023375749589,-0.5801449418067932,0.0,1.0],"mesh":0},{"name":"Camera","matrix":[1.0,0.0,0.0,0.0,0.0,0.9961947202682495,-0.08715573698282242,0.0,0.0,0.08715573698282242,0.9961947202682495,0.0,0.0,0.75,4.0,1.0],"camera":0}],"meshes":[{"primitives":[{"indices":1,"mode":4,"material":1,"attributes":{"POSITION":0,"NORMAL":2,"TEXCOORD_0":3}},{"indices":5,"mode":4,"material":2,"attributes":{"POSITION":4,"NORMAL":6,"TEXCOORD_0":7}},{"indices":9,"mode":4,"material":3,"attributes":{"POSITION":8,"NORMAL":10,"TEXCOORD_0":11}},{"indices":13,"mode":4,"material":4,"attributes":{"POSITION":12,"NORMAL":14,"TEXCOORD_0":15}}]}],"buffers":[{"byteLength":40504,"uri":"Door.bin"}],"bufferViews":[{"buffer":0,"byteLength":4416},{"buffer":0,"byteLength":4032,"byteOffset":4416},{"buffer":0,"byteLength":4416,"byteOffset":8448},{"buffer":0,"byteLength":2944,"byteOffset":12864},{"buffer":0,"byteLength":3144,"byteOffset":15808},{"buffer":0,"byteLength":2640,"byteOffset":18952},{"buffer":0,"byteLength":3144,"byteOffset":21592},{"buffer":0,"byteLength":2096,"byteOffset":24736},{"buffer":0,"byteLength":3168,"byteOffset":26832},{"buffer":0,"byteLength":2832,"byteOffset":30000},{"buffer":0,"byteLength":3168,"byteOffset":32832},{"buffer":0,"byteLength":2112,"byteOffset":36000},{"buffer":0,"byteLength":672,"byteOffset":38112},{"buffer":0,"byteLength":600,"byteOffset":38784},{"buffer":0,"byteLength":672,"byteOffset":39384},{"buffer":0,"byteLength":448,"byteOffset":40056}],"accessors":[{"bufferView":0,"type":"VEC3","componentType":5126,"count":368,"min":[-0.13277199864387513,0.037852466106414798,-0.4988512396812439],"max":[0.13525456190109254,1.7609922885894776,0.46713006496429446]},{"bufferView":1,"type":"SCALAR","componentType":5125,"count":1008},{"bufferView":2,"type":"VEC3","componentType":5126,"count":368},{"bufferView":3,"type":"VEC2","componentType":5126,"count":368},{"bufferView":4,"type":"VEC3","componentType":5126,"count":262,"min":[-0.1383723020553589,0.0,-0.556063175201416],"max":[0.1383723020553589,1.912824034690857,0.556063175201416]},{"bufferView":5,"type":"SCALAR","componentType":5125,"count":660},{"bufferView":6,"type":"VEC3","componentType":5126,"count":262},{"bufferView":7,"type":"VEC2","componentType":5126,"count":262},{"bufferView":8,"type":"VEC3","componentType":5126,"count":264,"min":[-0.1383723020553589,0.0,-0.556063175201416],"max":[0.1383723020553589,1.912824034690857,0.5353443026542664]},{"bufferView":9,"type":"SCALAR","componentType":5125,"count":708},{"bufferView":10,"type":"VEC3","componentType":5126,"count":264},{"bufferView":11,"type":"VEC2","componentType":5126,"count":264},{"bufferView":12,"type":"VEC3","componentType":5126,"count":56,"min":[-0.04576496034860611,0.5526935458183289,-0.41635173559188845],"max":[0.10762940347194672,1.689436435699463,0.09604266285896301]},{"bufferView":13,"type":"SCALAR","componentType":5125,"count":150},{"bufferView":14,"type":"VEC3","componentType":5126,"count":56},{"bufferView":15,"type":"VEC2","componentType":5126,"count":56}],"materials":[{"pbrMetallicRoughness":{"metallicFactor":0.5,"roughnessFactor":0.5}},{"name":"Blue_MAT","emissiveFactor":[0.0,0.0,0.0],"alphaMode":"OPAQUE","doubleSided":false,"pbrMetallicRoughness":{"baseColorFactor":[0.5372829437255859,0.6051756143569946,1.0,1.0],"metallicFactor":1.0,"roughnessFactor":1.0}},{"name":"White_MAT","emissiveFactor":[0.0,0.0,0.0],"alphaMode":"OPAQUE","doubleSided":false,"pbrMetallicRoughness":{"baseColorFactor":[0.7848101258277893,0.7848101258277893,0.7848101258277893,1.0],"metallicFactor":1.0,"roughnessFactor":1.0}},{"name":"Gray_MAT","emissiveFactor":[0.0,0.0,0.0],"alphaMode":"OPAQUE","doubleSided":false,"pbrMetallicRoughness":{"baseColorFactor":[0.3860759437084198,0.3860759437084198,0.3860759437084198,1.0],"metallicFactor":1.0,"roughnessFactor":1.0}},{"name":"GlassBlue_MAT","emissiveFactor":[0.0,0.0,0.0],"alphaMode":"OPAQUE","doubleSided":false,"pbrMetallicRoughness":{"baseColorFactor":[0.3860759437084198,0.3860759437084198,0.3860759437084198,1.0],"metallicFactor":1.0,"roughnessFactor":1.0}}],"cameras":[{"name":"Camera","type":"perspective","perspective":{"znear":0.01,"yfov":0.8726}}]}